<svg width="223" height="183" viewBox="0 0 223 183" fill="none" xmlns="http://www.w3.org/2000/svg">
<path d="M13.4784 73.8025H3.86682V127.301H13.4784V73.8025Z" fill="#822A44"/>
<path d="M72.0868 127.275H60.8457L50.5436 106.609C49.2325 106.757 47.9143 106.843 46.594 106.867H41.2634V127.352H31.6519V73.7766H52.1732C63.6076 73.7766 70.2363 79.8213 70.2363 88.9917C70.3358 92.2594 69.369 95.4779 67.4645 98.219C65.56 100.96 62.8082 103.094 59.5752 104.336L72.0868 127.275ZM41.2634 99.0145H48.2236C54.8799 99.0145 60.1828 95.8372 60.1828 89.56C60.1828 84.3936 56.0123 81.5521 50.516 81.5521H41.2634V99.0145Z" fill="#822A44"/>
<path d="M85.7034 73.8025H119.565V81.7071H95.315V96.0956H118.018V103.845H95.315V119.267H119.565V127.275H85.7034V73.8025Z" fill="#822A44"/>
<path d="M177.815 127.275L155.581 100.616L177.538 73.8025H165.331L145.058 99.1438V73.8025H135.474V127.275H145.058V102.089L165.054 127.275H177.815Z" fill="#822A44"/>
<path d="M221.619 79.0201C221.516 80.0555 221.168 81.0564 220.599 81.9501C220.031 82.8438 219.256 83.6078 218.333 84.1865C215.011 82.2678 211.189 81.2401 207.285 81.2158C200.38 81.2158 197.949 84.0057 197.949 87.6739C197.949 98.0067 223 95.4235 223 112.085C223 122.289 215.129 127.998 202.783 128.179C197.413 128.429 192.078 127.246 187.399 124.769V115.702C191.999 118.396 197.327 119.803 202.755 119.757C208.942 119.757 212.615 117.174 212.615 112.834C212.615 103.096 187.758 105.627 187.758 88.2422C187.758 79.0201 194.469 72.7429 207.423 72.7429C214.576 72.7429 221.233 75.3261 221.564 78.9426" fill="#822A44"/>
<path d="M112.964 42.2613L111.776 41.3055C111.279 40.918 99.6791 31.6443 99.6791 21.2598C99.6791 9.73869 111.335 1.18827 111.832 0.826625L112.964 0L114.124 0.800793C114.649 1.13661 126.719 9.45453 126.719 21.2598C126.719 31.8768 114.704 40.9438 114.207 41.3313L112.964 42.2613Z" fill="#822A44"/>
<path d="M134.341 10.8235C145.638 14.8791 153.15 21.9313 153.15 29.2159C153.15 40.427 135.253 49.5199 113.157 49.5199C91.0616 49.5199 73.1641 40.427 73.1641 29.2159C73.1641 22.1121 80.3728 15.1891 91.2825 11.1335C74.7108 14.5691 62.5582 21.7505 62.5582 30.0942C62.5582 41.7703 85.7034 51.2248 113.489 51.2248C141.274 51.2248 164.391 41.7703 164.391 30.0942C164.391 21.5438 151.714 14.1817 134.341 10.8752" fill="#822A44"/>
<path d="M13.4784 73.1824H3.86682V126.681H13.4784V73.1824Z" fill="#74233C"/>
<path d="M12.0145 182.348C3.72863 182.348 0 176.381 0 168.787C0 161.192 4.22578 155.302 12.484 155.302C14.8111 155.24 17.1151 155.748 19.1679 156.775L17.6489 159.513C16.1661 158.825 14.5253 158.488 12.8707 158.531C7.34679 158.531 5.22009 163.284 5.22009 168.864C5.22009 174.444 7.09821 179.197 11.7935 179.197C12.7343 179.23 13.6729 179.09 14.5555 178.784V169.794H10.6059V166.952H19.4165V180.902C17.1174 181.956 14.5724 182.453 12.0145 182.348Z" fill="#878787"/>
<path d="M56.3438 182.064L52.3113 174.599C51.5462 172.729 50.0981 171.173 48.2236 170.207V182.064H43.1969V156.775C45.5454 155.774 48.1013 155.271 50.6818 155.302C56.8133 155.302 60.8458 157.885 60.8458 162.871C60.7692 164.622 60.0206 166.288 58.7372 167.564C57.4538 168.84 55.7215 169.641 53.858 169.82C55.3145 170.985 56.4991 172.418 57.3381 174.03L62.0334 181.78L56.3438 182.064ZM50.8199 158.195C49.9551 158.183 49.0948 158.314 48.2789 158.583V168.089C48.9314 168.227 49.5984 168.297 50.2675 168.296C51.0125 168.344 51.7599 168.244 52.4608 168.003C53.1617 167.762 53.8003 167.385 54.3349 166.898C54.8694 166.41 55.2877 165.822 55.5625 165.173C55.8373 164.523 55.9624 163.827 55.9295 163.129C56.0289 162.464 55.9657 161.786 55.7447 161.147C55.5237 160.508 55.1506 159.924 54.6534 159.439C54.1563 158.954 53.548 158.581 52.8745 158.348C52.2009 158.114 51.4795 158.027 50.7646 158.092L50.8199 158.195Z" fill="#878787"/>
<path d="M93.1054 182.4C87.5815 182.4 83.9081 179.533 83.9081 174.78V155.69H88.9901V174.935C88.9283 175.47 88.9962 176.012 89.1885 176.519C89.3809 177.027 89.6928 177.487 90.1013 177.867C90.5097 178.247 91.0042 178.535 91.5481 178.712C92.092 178.888 92.6715 178.948 93.2435 178.887C93.8198 178.951 94.4042 178.894 94.9537 178.719C95.5033 178.545 96.0042 178.258 96.4199 177.879C96.8355 177.5 97.1554 177.039 97.3561 176.53C97.5568 176.02 97.6332 175.475 97.5797 174.935V155.69H102.275V174.78C102.275 179.481 98.6017 182.4 93.1054 182.4Z" fill="#878787"/>
<path d="M133.872 171.577C133.003 171.596 132.134 171.544 131.276 171.422V182.065H126.276V156.775C128.629 155.759 131.198 155.255 133.789 155.303C140.666 155.303 143.925 158.609 143.925 163.517C143.925 168.425 140.252 171.577 133.872 171.577ZM133.872 158.092C133.007 158.086 132.148 158.217 131.331 158.48V168.632C131.993 168.673 132.657 168.673 133.319 168.632C134.061 168.691 134.807 168.598 135.506 168.359C136.204 168.12 136.839 167.741 137.365 167.249C137.891 166.757 138.296 166.164 138.551 165.51C138.807 164.857 138.906 164.159 138.843 163.466C138.898 160.211 137.49 158.092 133.816 158.092H133.872Z" fill="#878787"/>
<path d="M173.699 171.576C172.831 171.597 171.962 171.545 171.103 171.421V182.064H166.076V156.775C168.43 155.761 170.998 155.258 173.589 155.302C180.494 155.302 183.725 158.609 183.725 163.517C183.725 168.425 180.079 171.576 173.699 171.576ZM173.699 158.092C172.835 158.084 171.975 158.215 171.158 158.48V168.632C171.811 168.673 172.466 168.673 173.119 168.632C173.86 168.691 174.607 168.597 175.305 168.359C176.004 168.12 176.639 167.741 177.165 167.249C177.691 166.757 178.096 166.164 178.351 165.51C178.606 164.856 178.706 164.159 178.643 163.465C178.698 160.21 177.29 158.092 173.644 158.092H173.699Z" fill="#878787"/>
<path d="M205.959 182.064V155.69H219.465V158.816H211.179V166.979H218.636V170.001H211.179V178.913H219.465V182.064H205.959Z" fill="#878787"/>
</svg>
