<?xml version="1.0" encoding="UTF-8"?>
<!DOCTYPE svg PUBLIC "-//W3C//DTD SVG 1.1//EN" "http://www.w3.org/Graphics/SVG/1.1/DTD/svg11.dtd">
<svg xmlns="http://www.w3.org/2000/svg" version="1.1" width="1225px" height="620px" style="shape-rendering:geometricPrecision; text-rendering:geometricPrecision; image-rendering:optimizeQuality; fill-rule:evenodd; clip-rule:evenodd" xmlns:xlink="http://www.w3.org/1999/xlink">
<g><path style="opacity:0.983" fill="#f38620" d="M 608.5,45.5 C 608.5,79.8333 608.5,114.167 608.5,148.5C 611.167,148.5 613.833,148.5 616.5,148.5C 598.166,148.946 580.166,152.112 562.5,158C 561.167,158.667 559.833,159.333 558.5,160C 559.448,160.483 560.448,160.649 561.5,160.5C 553.979,162.631 546.312,164.631 538.5,166.5C 538.5,150.833 538.5,135.167 538.5,119.5C 556.286,117.15 573.952,114.15 591.5,110.5C 584.057,91.4028 570.724,85.5694 551.5,93C 546.447,95.2253 542.114,98.3919 538.5,102.5C 538.5,82.5 538.5,62.5 538.5,42.5C 562.15,36.4193 585.484,37.4193 608.5,45.5 Z"/></g>
<g><path style="opacity:0.981" fill="#f08021" d="M 538.5,42.5 C 538.5,62.5 538.5,82.5 538.5,102.5C 535.115,107.99 533.115,113.99 532.5,120.5C 534.621,120.675 536.621,120.341 538.5,119.5C 538.5,135.167 538.5,150.833 538.5,166.5C 494.819,180.672 454.819,201.672 418.5,229.5C 418.5,205.833 418.5,182.167 418.5,158.5C 435.615,149.949 453.282,142.449 471.5,136C 466.458,101.084 478.791,74.0836 508.5,55C 517.928,49.4525 527.928,45.2859 538.5,42.5 Z"/></g>
<g><path style="opacity:0.99" fill="#f48b22" d="M 608.5,45.5 C 628.571,52.5223 642.571,65.8557 650.5,85.5C 650.5,106.167 650.5,126.833 650.5,147.5C 653.059,147.198 655.393,147.532 657.5,148.5C 643.833,148.5 630.167,148.5 616.5,148.5C 613.833,148.5 611.167,148.5 608.5,148.5C 608.5,114.167 608.5,79.8333 608.5,45.5 Z"/></g>
<g><path style="opacity:0.986" fill="#f59227" d="M 650.5,85.5 C 653.333,93.477 655,101.81 655.5,110.5C 667.88,111.423 680.213,112.756 692.5,114.5C 692.5,126.167 692.5,137.833 692.5,149.5C 694.735,149.205 696.735,149.539 698.5,150.5C 686.857,149.446 675.191,148.78 663.5,148.5C 661.5,148.5 659.5,148.5 657.5,148.5C 655.393,147.532 653.059,147.198 650.5,147.5C 650.5,126.833 650.5,106.167 650.5,85.5 Z"/></g>
<g><path style="opacity:0.983" fill="#f6982d" d="M 692.5,114.5 C 707.035,117.073 721.368,120.406 735.5,124.5C 735.192,134.915 735.525,145.249 736.5,155.5C 723.925,153.178 711.258,151.511 698.5,150.5C 696.735,149.539 694.735,149.205 692.5,149.5C 692.5,137.833 692.5,126.167 692.5,114.5 Z"/></g>
<g><path style="opacity:0.978" fill="#f89f34" d="M 735.5,124.5 C 752.41,128.802 768.744,134.469 784.5,141.5C 784.5,150.5 784.5,159.5 784.5,168.5C 774.302,165.034 763.969,162.034 753.5,159.5C 747.935,157.757 742.269,156.423 736.5,155.5C 735.525,145.249 735.192,134.915 735.5,124.5 Z"/></g>
<g><path style="opacity:0.92" fill="#6a2d22" d="M 616.5,148.5 C 630.167,148.5 643.833,148.5 657.5,148.5C 659.5,148.5 661.5,148.5 663.5,148.5C 665.298,151.831 665.964,155.498 665.5,159.5C 630.8,156.602 596.133,156.936 561.5,160.5C 560.448,160.649 559.448,160.483 558.5,160C 559.833,159.333 561.167,158.667 562.5,158C 580.166,152.112 598.166,148.946 616.5,148.5 Z"/></g>
<g><path style="opacity:0.973" fill="#f9a73b" d="M 784.5,141.5 C 799.242,146.86 813.575,153.194 827.5,160.5C 827.198,168.918 827.531,177.252 828.5,185.5C 816.466,180.044 804.133,175.378 791.5,171.5C 789.351,170.264 787.018,169.264 784.5,168.5C 784.5,159.5 784.5,150.5 784.5,141.5 Z"/></g>
<g><path style="opacity:0.967" fill="#6f2c1e" d="M 663.5,148.5 C 675.191,148.78 686.857,149.446 698.5,150.5C 711.258,151.511 723.925,153.178 736.5,155.5C 742.269,156.423 747.935,157.757 753.5,159.5C 753.5,166.167 753.5,172.833 753.5,179.5C 724.972,169.394 695.639,162.727 665.5,159.5C 665.964,155.498 665.298,151.831 663.5,148.5 Z"/></g>
<g><path style="opacity:0.978" fill="#ee7b22" d="M 418.5,158.5 C 418.5,182.167 418.5,205.833 418.5,229.5C 405.207,240.459 392.54,252.125 380.5,264.5C 380.5,235.833 380.5,207.167 380.5,178.5C 392.527,170.818 405.194,164.151 418.5,158.5 Z"/></g>
<g><path style="opacity:0.969" fill="#712b1b" d="M 753.5,159.5 C 763.969,162.034 774.302,165.034 784.5,168.5C 787.018,169.264 789.351,170.264 791.5,171.5C 791.5,179.5 791.5,187.5 791.5,195.5C 779.059,189.612 766.393,184.279 753.5,179.5C 753.5,172.833 753.5,166.167 753.5,159.5 Z"/></g>
<g><path style="opacity:0.973" fill="#742b1a" d="M 791.5,171.5 C 804.133,175.378 816.466,180.044 828.5,185.5C 834.435,188.467 840.435,191.467 846.5,194.5C 846.5,206.833 846.5,219.167 846.5,231.5C 829.327,217.745 810.993,205.745 791.5,195.5C 791.5,187.5 791.5,179.5 791.5,171.5 Z"/></g>
<g><path style="opacity:0.968" fill="#faad41" d="M 827.5,160.5 C 840.356,166.756 852.689,173.756 864.5,181.5C 864.825,188.687 864.491,195.687 863.5,202.5C 857.708,200.104 852.041,197.437 846.5,194.5C 840.435,191.467 834.435,188.467 828.5,185.5C 827.531,177.252 827.198,168.918 827.5,160.5 Z"/></g>
<g><path style="opacity:0.982" fill="#ec7823" d="M 380.5,178.5 C 380.5,207.167 380.5,235.833 380.5,264.5C 363.948,283.3 348.614,302.967 334.5,323.5C 334.5,285.5 334.5,247.5 334.5,209.5C 348.76,197.694 364.094,187.36 380.5,178.5 Z"/></g>
<g><path style="opacity:0.958" fill="#f9af47" d="M 864.5,181.5 C 894.269,199.049 922.269,219.049 948.5,241.5C 948.819,246.363 948.486,251.03 947.5,255.5C 942.357,252.425 937.357,249.092 932.5,245.5C 916.015,234.016 899.015,223.349 881.5,213.5C 875.5,209.833 869.5,206.167 863.5,202.5C 864.491,195.687 864.825,188.687 864.5,181.5 Z"/></g>
<g><path style="opacity:0.981" fill="#792e1c" d="M 846.5,194.5 C 852.041,197.437 857.708,200.104 863.5,202.5C 869.5,206.167 875.5,209.833 881.5,213.5C 881.5,230.5 881.5,247.5 881.5,264.5C 870.792,252.458 859.125,241.458 846.5,231.5C 846.5,219.167 846.5,206.833 846.5,194.5 Z"/></g>
<g><path style="opacity:0.99" fill="#e97323" d="M 334.5,209.5 C 334.5,247.5 334.5,285.5 334.5,323.5C 314.514,355.598 298.847,389.764 287.5,426C 303.163,426.5 318.83,426.667 334.5,426.5C 334.5,449.167 334.5,471.833 334.5,494.5C 302.439,498.652 270.439,502.985 238.5,507.5C 238.5,443.833 238.5,380.167 238.5,316.5C 263.791,274.997 295.791,239.33 334.5,209.5 Z"/></g>
<g><path style="opacity:0.983" fill="#803523" d="M 881.5,213.5 C 899.015,223.349 916.015,234.016 932.5,245.5C 932.5,277.5 932.5,309.5 932.5,341.5C 918.741,313.639 901.741,287.972 881.5,264.5C 881.5,247.5 881.5,230.5 881.5,213.5 Z"/></g>
<g><path style="opacity:0.924" fill="#6e2c1b" d="M 790.5,230.5 C 799.525,230.168 808.525,230.502 817.5,231.5C 806.955,246.089 796.289,260.589 785.5,275C 779.804,275.83 774.137,275.663 768.5,274.5C 760.306,263.473 752.306,252.306 744.5,241C 753.186,240.168 761.853,240.335 770.5,241.5C 772.584,245.336 774.917,249.003 777.5,252.5C 782.36,245.441 786.694,238.108 790.5,230.5 Z"/></g>
<g><path style="opacity:0.892" fill="#f8af4c" d="M 948.5,241.5 C 980.854,267.854 1010.19,297.188 1036.5,329.5C 1031.46,324.461 1026.13,319.794 1020.5,315.5C 1005.78,301.779 990.445,288.779 974.5,276.5C 965.28,269.73 956.28,262.73 947.5,255.5C 948.486,251.03 948.819,246.363 948.5,241.5 Z"/></g>
<g><path style="opacity:0.989" fill="#863b28" d="M 932.5,245.5 C 937.357,249.092 942.357,252.425 947.5,255.5C 956.28,262.73 965.28,269.73 974.5,276.5C 974.5,327.167 974.5,377.833 974.5,428.5C 970.003,429.055 965.836,428.389 962,426.5C 954.84,397.185 945.007,368.852 932.5,341.5C 932.5,309.5 932.5,277.5 932.5,245.5 Z"/></g>
<g><path style="opacity:0.993" fill="#8c412e" d="M 974.5,276.5 C 990.445,288.779 1005.78,301.779 1020.5,315.5C 1020.5,353.167 1020.5,390.833 1020.5,428.5C 1005.17,428.5 989.833,428.5 974.5,428.5C 974.5,377.833 974.5,327.167 974.5,276.5 Z"/></g>
<g><path style="opacity:0.948" fill="#6e2c1b" d="M 437.5,283.5 C 461.494,281.998 484.828,285.165 507.5,293C 512.242,295.12 516.742,297.62 521,300.5C 518.928,307.31 515.761,313.644 511.5,319.5C 482.047,304.582 451.38,301.416 419.5,310C 414.157,312.17 410.824,316.004 409.5,321.5C 409.486,323.593 410.152,325.426 411.5,327C 415.814,329.66 420.481,331.327 425.5,332C 447.502,332.986 469.502,333.986 491.5,335C 504.611,336.14 515.444,341.64 524,351.5C 533.338,373.15 527.172,388.65 505.5,398C 488.289,403.518 470.622,406.018 452.5,405.5C 434.101,406.212 416.434,403.045 399.5,396C 395.385,393.552 391.552,390.719 388,387.5C 390.939,381.003 394.939,375.003 400,369.5C 415.439,380.729 432.772,385.396 452,383.5C 467.646,384.387 482.812,382.221 497.5,377C 504.54,372.392 505.207,367.059 499.5,361C 496.911,359.803 494.244,358.803 491.5,358C 467.499,356.94 443.499,355.606 419.5,354C 388.782,349.042 378.949,332.209 390,303.5C 398.213,293.641 408.713,287.808 421.5,286C 426.988,285.226 432.321,284.393 437.5,283.5 Z"/></g>
<g><path style="opacity:0.952" fill="#6e2c1b" d="M 604.5,283.5 C 614.506,283.334 624.506,283.5 634.5,284C 665.303,286.803 682.136,303.636 685,334.5C 685.5,358.164 685.667,381.831 685.5,405.5C 677.5,405.5 669.5,405.5 661.5,405.5C 661.666,401.486 661.499,397.486 661,393.5C 641.461,403.967 620.627,407.801 598.5,405C 581.053,404.858 566.22,398.692 554,386.5C 549.835,380.5 548.001,373.833 548.5,366.5C 548.409,349.769 556.076,338.269 571.5,332C 578.571,329.186 585.904,327.519 593.5,327C 609.167,326.333 624.833,326.333 640.5,327C 646.587,327.717 652.587,328.884 658.5,330.5C 659.167,330.167 659.833,329.833 660.5,329.5C 657.479,315.978 649.146,308.145 635.5,306C 611.252,303.494 587.585,305.994 564.5,313.5C 563.833,313.167 563.167,312.833 562.5,312.5C 559.628,306.588 556.628,300.755 553.5,295C 559.503,291.887 565.836,289.553 572.5,288C 583.256,286.087 593.923,284.587 604.5,283.5 Z M 595.5,347.5 C 617.632,346.798 639.632,348.131 661.5,351.5C 661.666,357.509 661.499,363.509 661,369.5C 650.814,377.122 639.314,381.622 626.5,383C 616.5,383.667 606.5,383.667 596.5,383C 589.178,382.449 582.511,380.115 576.5,376C 571.046,368.472 571.38,361.139 577.5,354C 583.152,350.596 589.152,348.43 595.5,347.5 Z"/></g>
<g><path style="opacity:0.944" fill="#6e2c1b" d="M 771.5,283.5 C 797.912,281.172 822.579,286.505 845.5,299.5C 843.215,306.03 840.548,312.364 837.5,318.5C 811.515,305.419 784.349,302.085 756,308.5C 743.358,312.143 736.024,320.477 734,333.5C 732.646,344.423 733.646,355.09 737,365.5C 741.878,373.694 749.045,378.861 758.5,381C 785.887,386.686 812.054,383.186 837,370.5C 840.225,375.81 842.892,381.477 845,387.5C 845.749,388.635 845.583,389.635 844.5,390.5C 810.211,407.55 774.878,410.05 738.5,398C 717.534,386.591 707.534,368.757 708.5,344.5C 708.1,312.421 723.433,292.921 754.5,286C 760.317,285.191 765.983,284.358 771.5,283.5 Z"/></g>
<g><path style="opacity:0.988" fill="#e86f24" d="M 238.5,316.5 C 238.5,380.167 238.5,443.833 238.5,507.5C 222.454,509.172 206.454,511.172 190.5,513.5C 190.5,478.833 190.5,444.167 190.5,409.5C 204.176,377.143 220.176,346.143 238.5,316.5 Z"/></g>
<g><path style="opacity:0.98" fill="#924733" d="M 1020.5,315.5 C 1026.13,319.794 1031.46,324.461 1036.5,329.5C 1049.5,341.162 1062.16,353.162 1074.5,365.5C 1074.5,386.5 1074.5,407.5 1074.5,428.5C 1056.5,428.5 1038.5,428.5 1020.5,428.5C 1020.5,390.833 1020.5,353.167 1020.5,315.5 Z"/></g>
<g><path style="opacity:0.951" fill="#994e3a" d="M 1074.5,365.5 C 1081.34,370.835 1088.34,376.002 1095.5,381C 1121.63,396.301 1147.63,411.801 1173.5,427.5C 1140.51,428.5 1107.51,428.833 1074.5,428.5C 1074.5,407.5 1074.5,386.5 1074.5,365.5 Z"/></g>
<g><path style="opacity:0.978" fill="#e66c24" d="M 190.5,409.5 C 190.5,444.167 190.5,478.833 190.5,513.5C 174.5,515.5 158.5,517.5 142.5,519.5C 142.5,502.5 142.5,485.5 142.5,468.5C 160.802,450.549 176.802,430.882 190.5,409.5 Z"/></g>
<g><path style="opacity:0.989" fill="#ec7823" d="M 334.5,426.5 C 349.833,426.5 365.167,426.5 380.5,426.5C 380.5,447.167 380.5,467.833 380.5,488.5C 365.183,490.593 349.849,492.593 334.5,494.5C 334.5,471.833 334.5,449.167 334.5,426.5 Z"/></g>
<g><path style="opacity:0.988" fill="#ee7b22" d="M 380.5,426.5 C 393.167,426.5 405.833,426.5 418.5,426.5C 418.5,445.5 418.5,464.5 418.5,483.5C 405.859,485.33 393.192,486.997 380.5,488.5C 380.5,467.833 380.5,447.167 380.5,426.5 Z"/></g>
<g><path style="opacity:0.986" fill="#f08021" d="M 418.5,426.5 C 458.5,426.5 498.5,426.5 538.5,426.5C 538.5,440.167 538.5,453.833 538.5,467.5C 498.678,473.145 458.678,478.479 418.5,483.5C 418.5,464.5 418.5,445.5 418.5,426.5 Z"/></g>
<g><path style="opacity:0.982" fill="#f38520" d="M 538.5,426.5 C 561.833,426.5 585.167,426.5 608.5,426.5C 608.5,437.167 608.5,447.833 608.5,458.5C 585.271,461.987 561.937,464.987 538.5,467.5C 538.5,453.833 538.5,440.167 538.5,426.5 Z"/></g>
<g><path style="opacity:0.976" fill="#f58c22" d="M 608.5,426.5 C 622.5,426.5 636.5,426.5 650.5,426.5C 650.5,435.5 650.5,444.5 650.5,453.5C 636.521,455.331 622.521,456.997 608.5,458.5C 608.5,447.833 608.5,437.167 608.5,426.5 Z"/></g>
<g><path style="opacity:0.969" fill="#f69227" d="M 650.5,426.5 C 664.5,426.5 678.5,426.5 692.5,426.5C 692.5,433.5 692.5,440.5 692.5,447.5C 678.559,449.66 664.559,451.66 650.5,453.5C 650.5,444.5 650.5,435.5 650.5,426.5 Z"/></g>
<g><path style="opacity:0.962" fill="#f6982d" d="M 692.5,426.5 C 706.833,426.5 721.167,426.5 735.5,426.5C 735.5,431.833 735.5,437.167 735.5,442.5C 721.176,444.249 706.843,445.916 692.5,447.5C 692.5,440.5 692.5,433.5 692.5,426.5 Z"/></g>
<g><path style="opacity:0.943" fill="#f99f33" d="M 735.5,426.5 C 747.833,426.5 760.167,426.5 772.5,426.5C 772.5,430.167 772.5,433.833 772.5,437.5C 760.121,438.922 747.787,440.589 735.5,442.5C 735.5,437.167 735.5,431.833 735.5,426.5 Z"/></g>
<g><path style="opacity:0.908" fill="#faa63a" d="M 772.5,426.5 C 798.502,426.333 824.502,426.5 850.5,427C 824.509,430.665 798.509,434.165 772.5,437.5C 772.5,433.833 772.5,430.167 772.5,426.5 Z"/></g>
<g><path style="opacity:0.941" fill="#e56825" d="M 142.5,468.5 C 142.5,485.5 142.5,502.5 142.5,519.5C 122.955,522.441 103.622,524.775 84.5,526.5C 103.467,506.866 122.8,487.533 142.5,468.5 Z"/></g>
</svg>
