<svg width="48" height="22" viewBox="0 0 48 22" fill="none" xmlns="http://www.w3.org/2000/svg">
<path d="M20.9971 2.24731C22.1724 2.07701 22.3876 3.21234 22.3876 3.21234L19.7238 3.64094C19.7238 3.64094 19.7102 2.43377 20.9971 2.24731ZM42.0753 12.949C39.0748 9.33598 32.6972 3.68834 25.1739 3.18166C25.1728 3.10193 25.0846 2.66599 25.0721 2.57891C24.8232 0.861578 22.8296 -0.26494 20.6278 0.0539818C18.4258 0.373089 16.8327 2.01933 17.0816 3.73665C17.0998 3.86286 17.12 4.17811 17.1518 4.28393C9.76975 6.94112 6.9597 11.2602 4.84317 16.0109C3.83868 18.2656 4.854 20.8756 7.30157 20.5561L33.7629 17.102L11.7033 17.2298C11.7 17.2298 12.6785 17.2298 11.7033 17.2298H10.8367C9.8906 17.2298 9.07819 16.1585 9.42764 15.2793C9.75666 14.4515 10.1471 14.0111 10.5939 13.2406C11.037 12.4765 11.5358 11.745 12.0847 11.0533C12.6318 10.3637 13.2105 9.69366 13.8691 9.10965C23.4529 0.609894 35.4617 6.94774 42.0753 12.949Z" fill="#060508"/>
<path d="M38.2699 15.5471C38.5717 16.4691 39.4058 17.1438 40.376 17.1438H42.1544C43.7913 17.1438 44.265 15.1258 43.1164 13.9595C39.136 9.9179 32.9596 5.37087 27.1576 4.92721C21.9526 4.5291 20.826 5.3863 20.826 5.3863C20.826 5.3863 34.1282 2.89564 38.2699 15.5471Z" fill="#060508"/>
</svg>
