<svg xmlns="http://www.w3.org/2000/svg" version="1.1" xmlns:xlink="http://www.w3.org/1999/xlink" width="294.1593777126182" height="200" viewBox="-5.159999847412109 9.920783996582031 64.4800033569336 40.639217376708984"><path d="M23.72 12.36L24.84 11.24Q28.36 8.92 27.96 10.68Q27.56 12.44 23.56 17.68L23.56 17.68L23.36 17.88L22.44 18.80Q28.32 11.12 26.44 11.04L26.44 11.04Q25.76 11.04 24 12.20L24 12.20Q17.52 19.48 10.08 29.60L10.08 29.60Q13.76 27.48 19.44 21.88L19.44 21.88Q13.36 28 9.48 30.40L9.48 30.40L3.12 39.36Q2.60 40.08 0.96 42.24L0.96 42.24L-2.16 46.32Q-3.52 48.24-4.04 49.44L-4.04 49.44Q-4.04 49.48-3.36 48.88L-3.36 48.88L-1.84 47.52Q-1 46.84-0.80 46.68L-0.80 46.68Q4.04 43.24 9.80 40.92L9.80 40.92L14.52 39.04Q16.36 38.36 18.36 37.84Q20.36 37.32 21.42 37.08Q22.48 36.84 25.52 36.24L25.52 36.24L30.68 35.24L29.56 36.36L24.36 37.40Q21.32 38 20.28 38.22Q19.24 38.44 17.24 38.98Q15.24 39.52 13.36 40.20L13.36 40.20Q11.56 40.88 8.68 42.04L8.68 42.04Q2.88 44.40-1.92 47.80L-1.92 47.80Q-2.16 47.96-2.96 48.64L-2.96 48.64L-4.48 49.92L-5.16 50.56Q-4.64 49.36-3.28 47.44Q-1.92 45.52-0.20 43.36Q1.52 41.20 2 40.48L2 40.48L8.96 30.72Q5.72 32.60 4.04 31.80L4.04 31.80Q2.92 31.28 2.90 29.48Q2.88 27.68 3.62 25.48Q4.36 23.28 5.50 20.82Q6.64 18.36 7.56 16.68Q8.48 15 9.04 14.12L9.04 14.12L10.16 13Q10.12 13.16 10.06 13.38Q10 13.60 10 13.66Q10 13.72 9.96 13.84Q9.92 13.96 9.92 14L9.92 14L9.92 14.16L9.92 14.36Q9.92 14.48 9.90 14.64Q9.88 14.80 9.88 15.08Q9.88 15.36 9.84 15.68L9.84 15.68L8.72 16.80Q8.72 16.48 8.80 15.36L8.80 15.36Q7.64 17.44 6.68 19.58Q5.72 21.72 4.84 24.16Q3.96 26.60 4 28.38Q4.04 30.16 5.16 30.68L5.16 30.68Q6.72 31.40 9.60 29.88L9.60 29.88Q17.08 19.72 23.72 12.36L23.72 12.36ZM31.60 35.56L31.60 35.56L32.72 34.44Q32.08 38.16 32.52 38.56L32.52 38.56Q32.72 38.72 33.52 38.72L33.52 38.72Q34.48 37.36 35.88 34.80L35.88 34.80L37 33.68Q35.16 37.08 33.76 38.72L33.76 38.72L32.64 39.84Q32.40 39.80 32.20 39.84Q32 39.88 31.76 39.84Q31.52 39.80 31.40 39.68L31.40 39.68Q30.92 39.28 31.60 35.56ZM37.44 41.48L37.44 41.48Q38.24 39.08 39.00 36.08L39.00 36.08Q37.56 37.68 36.76 39.48L36.76 39.48Q36.04 41.12 35.80 42.96L35.80 42.96Q35.68 44.44 36.40 44.28L36.40 44.28Q36.84 43.32 37.28 42.04L37.28 42.04Q37.20 41.92 37.44 41.48ZM42.04 36.80L42.04 36.80L41.20 37.52Q40.56 38.08 40.16 38.48Q39.76 38.88 39.40 39.28L39.40 39.28Q39.64 39.08 40.24 38.52L40.24 38.52L41.28 37.60Q41.68 37.20 42.04 36.80ZM42.04 36.80L42.04 36.80Q42.76 36 43.12 35.20L43.12 35.20Q43.32 34.84 43.28 34.32Q43.24 33.80 42.92 33.60L42.92 33.60Q42.40 33.32 40.08 35.08L40.08 35.08Q39.44 37.72 38.72 39.92L38.72 39.92Q39.04 39.64 39.40 39.28L39.40 39.28Q39.00 39.72 38.72 40.16L38.72 40.16L38.60 40.36L38.40 40.92Q38.44 40.96 38.48 40.96L38.48 40.96Q39.24 41.12 40.02 41.14Q40.80 41.16 41.66 41Q42.52 40.84 43.20 40.70Q43.88 40.56 44.84 40.24L44.84 40.24L46.36 39.68Q46.92 39.48 47.94 39.08Q48.96 38.68 49.32 38.52L49.32 38.52L48.20 39.64L47.04 40.12Q46.24 40.44 45.78 40.60Q45.32 40.76 44.50 41.08Q43.68 41.40 43.20 41.52Q42.72 41.64 41.88 41.88Q41.04 42.12 40.56 42.14Q40.08 42.16 39.24 42.24Q38.40 42.32 37.92 42.20L37.92 42.20Q37.60 43.12 37.24 43.80L37.24 43.80L36.12 44.92Q34.56 46.20 34.64 44.44L34.64 44.44Q34.76 42.76 35.64 40.60L35.64 40.60Q35.92 39.96 36.18 39.48Q36.44 39 36.84 38.48L36.84 38.48L37.40 37.76Q37.56 37.52 38.18 36.84Q38.80 36.16 39.00 35.96L39.00 35.96Q40.24 30.92 40.82 25.98Q41.40 21.04 41.00 17.96L41.00 17.96Q38.36 27.24 38.36 34.28L38.36 34.28L37.24 35.40Q37.24 27.56 40.68 16.36L40.68 16.36L41.80 15.24Q42.40 17.12 42.28 20.46Q42.16 23.80 41.60 27.46Q41.04 31.12 40.16 34.80L40.16 34.80L40.28 34.68L41.00 34.16L41.92 33.44Q42.24 33.20 42.72 32.88Q43.20 32.56 43.54 32.46Q43.88 32.36 44.04 32.48L44.04 32.48Q44.36 32.68 44.40 33.20Q44.44 33.72 44.24 34.08L44.24 34.08Q43.68 35.28 42.04 36.80ZM49.40 38.68L49.40 38.68Q51.84 38.24 56.24 37.12L56.24 37.12Q56.32 37.08 56.42 36.96Q56.52 36.84 56.60 36.76Q56.68 36.68 56.74 36.60Q56.80 36.52 56.80 36.48Q56.80 36.44 56.72 36.40L56.72 36.40Q53.84 35.76 49.40 38.68ZM58.20 37.48L56.08 38.04Q55.60 38.88 55.28 39.72L55.28 39.72L54.16 40.84Q54.60 39.64 55.56 38.16L55.56 38.16Q50.36 39.48 47.68 39.92L47.68 39.92L48.80 38.80Q54.44 34.52 57.84 35.28L57.84 35.28Q57.96 35.36 57.90 35.46Q57.84 35.56 57.60 35.80L57.60 35.80L57.28 36.12L56.68 37.04L59.32 36.36L58.20 37.48Z" fill="white"></path></svg>